<svg xmlns="http://www.w3.org/2000/svg" width="576" height="64" viewBox="0 0 576 64">
  <defs>
    <style>
      .line { stroke: #18191b; stroke-width: 2.4; stroke-linejoin: round; stroke-linecap: round; }
      .fur { fill: #fff8ed; }
      .patch { fill: #7a5a48; }
      .pink { fill: #ff8fa3; }
      .ink { fill: #18191b; }
      .shadow { fill: #d9cfc2; }
    </style>

    <g id="cubeCat">
      <path class="fur line" d="M13 20V8l10 8h18l10-8v12h4v28H9V20Z"/>
      <path class="pink line" d="M16 13v9l7-5Z"/>
      <path class="pink line" d="M48 13v9l-7-5Z"/>
      <path class="patch" d="M19 24h26v24H19Z"/>
      <path class="shadow" d="M9 48h46v6H9Z"/>
      <rect class="fur line" x="13" y="44" width="10" height="12" rx="2"/>
      <rect class="patch line" x="41" y="44" width="10" height="12" rx="2"/>
      <circle class="ink" cx="23" cy="34" r="2.7"/>
      <circle class="ink" cx="41" cy="34" r="2.7"/>
      <circle class="fur" cx="24" cy="33" r=".7"/>
      <circle class="fur" cx="42" cy="33" r=".7"/>
      <path class="line" d="M30 40h4M27 43c3 3 7 3 10 0" fill="none"/>
      <path class="line" d="M12 39H2M12 44H3M52 39h10M52 44h9" fill="none"/>
    </g>

    <g id="cubeCatSleep">
      <path class="fur line" d="M13 22V10l10 7h18l10-7v12h4v25H9V22Z"/>
      <path class="patch" d="M18 26h28v21H18Z"/>
      <path class="shadow" d="M8 47h48v7H8Z"/>
      <path class="line" d="M20 35h8M36 35h8M29 42h6" fill="none"/>
      <rect class="fur line" x="12" y="43" width="40" height="12" rx="3"/>
      <text x="49" y="19" font-family="Arial, sans-serif" font-size="10" font-weight="700" fill="#7a5a48">z</text>
    </g>
  </defs>

  <g id="idle">
    <use href="#cubeCat"/>
    <rect class="pink line" x="15" y="47" width="7" height="6" rx="2"/>
  </g>

  <g id="walk" transform="translate(64 0)">
    <use href="#cubeCat"/>
    <rect class="fur line" x="8" y="47" width="11" height="8" rx="2"/>
    <path class="line" d="M49 52h8l4-5" fill="none"/>
  </g>

  <g id="sleep" transform="translate(128 0)">
    <use href="#cubeCatSleep"/>
    <text x="45" y="29" font-family="Arial, sans-serif" font-size="7" font-weight="700" fill="#7a5a48">z</text>
  </g>

  <g id="wake" transform="translate(192 0)">
    <use href="#cubeCat"/>
    <path class="line" d="M20 34h8M38 34h8" fill="none"/>
    <path class="line" d="M5 17h7M52 17h7" fill="none"/>
  </g>

  <g id="look" transform="translate(256 0)">
    <use href="#cubeCat"/>
    <circle class="ink" cx="26" cy="34" r="2.7"/>
    <circle class="ink" cx="45" cy="34" r="2.7"/>
    <path class="line" d="M48 27h7l3-4" fill="none"/>
  </g>

  <g id="meow" transform="translate(320 0)">
    <use href="#cubeCat"/>
    <rect class="pink line" x="28" y="42" width="8" height="6" rx="2"/>
    <path class="line" d="M52 30h5M53 35h8M52 40h5" fill="none"/>
  </g>

  <g id="scratch" transform="translate(384 0)">
    <use href="#cubeCat"/>
    <rect class="patch line" x="49" y="44" width="9" height="12" rx="2"/>
    <path class="line" d="M56 33h6M55 39h7M56 45h6" fill="none"/>
  </g>

  <g id="groom" transform="translate(448 0)">
    <use href="#cubeCat"/>
    <rect class="fur line" x="15" y="42" width="12" height="11" rx="3"/>
    <path class="line" d="M18 42c4-6 9-6 13-1" fill="none"/>
    <circle class="pink" cx="20" cy="47" r="2"/>
  </g>

  <g id="pounce" transform="translate(512 0)">
    <path class="shadow" d="M8 52h48v5H8Z"/>
    <path class="fur line" d="M15 24V12l9 7h17l9-7v12h4v22H11V24Z"/>
    <path class="patch" d="M20 27h24v18H20Z"/>
    <circle class="ink" cx="24" cy="34" r="2.7"/>
    <circle class="ink" cx="42" cy="34" r="2.7"/>
    <path class="line" d="M27 41c3 2 7 2 10 0M10 50c11-5 33-5 44 0" fill="none"/>
  </g>
</svg>
