<svg xmlns="http://www.w3.org/2000/svg" width="1024" height="64" viewBox="0 0 1024 64">
  <defs>
    <style>
      .line { stroke: #18191b; stroke-width: 2.4; stroke-linejoin: round; stroke-linecap: round; }
      .fur { fill: #fff8ed; }
      .patch { fill: #7a5a48; }
      .pink { fill: #ff8fa3; }
      .ink { fill: #18191b; }
      .shadow { fill: #d9cfc2; }
    </style>

    <g id="cubeCat">
      <path class="fur line" d="M13 20V8l10 8h18l10-8v12h4v28H9V20Z"/>
      <path class="pink line" d="M16 13v9l7-5Z"/>
      <path class="pink line" d="M48 13v9l-7-5Z"/>
      <path class="patch" d="M19 24h26v24H19Z"/>
      <path class="shadow" d="M9 48h46v6H9Z"/>
      <rect class="fur line" x="13" y="44" width="10" height="12" rx="2"/>
      <rect class="patch line" x="41" y="44" width="10" height="12" rx="2"/>
      <circle class="ink" cx="23" cy="34" r="2.7"/>
      <circle class="ink" cx="41" cy="34" r="2.7"/>
      <circle class="fur" cx="24" cy="33" r=".7"/>
      <circle class="fur" cx="42" cy="33" r=".7"/>
      <path class="line" d="M30 40h4M27 43c3 3 7 3 10 0" fill="none"/>
      <path class="line" d="M12 39H2M12 44H3M52 39h10M52 44h9" fill="none"/>
    </g>

    <g id="cubeCatSleep">
      <path class="fur line" d="M13 22V10l10 7h18l10-7v12h4v25H9V22Z"/>
      <path class="patch" d="M18 26h28v21H18Z"/>
      <path class="shadow" d="M8 47h48v7H8Z"/>
      <path class="line" d="M20 35h8M36 35h8M29 42h6" fill="none"/>
      <rect class="fur line" x="12" y="43" width="40" height="12" rx="3"/>
      <text x="49" y="19" font-family="Arial, sans-serif" font-size="10" font-weight="700" fill="#7a5a48">z</text>
    </g>
  </defs>

  <g id="idle">
    <use href="#cubeCat"/>
    <rect class="pink line" x="15" y="47" width="7" height="6" rx="2"/>
  </g>

  <g id="walk" transform="translate(64 0)">
    <use href="#cubeCat"/>
    <rect class="fur line" x="8" y="47" width="11" height="8" rx="2"/>
    <path class="line" d="M49 52h8l4-5" fill="none"/>
  </g>

  <g id="sleep" transform="translate(128 0)">
    <use href="#cubeCatSleep"/>
    <text x="45" y="29" font-family="Arial, sans-serif" font-size="7" font-weight="700" fill="#7a5a48">z</text>
  </g>

  <g id="wake" transform="translate(192 0)">
    <use href="#cubeCat"/>
    <path class="line" d="M20 34h8M38 34h8" fill="none"/>
    <path class="line" d="M5 17h7M52 17h7" fill="none"/>
  </g>

  <g id="look" transform="translate(256 0)">
    <use href="#cubeCat"/>
    <circle class="ink" cx="26" cy="34" r="2.7"/>
    <circle class="ink" cx="45" cy="34" r="2.7"/>
    <path class="line" d="M48 27h7l3-4" fill="none"/>
  </g>

  <g id="meow" transform="translate(320 0)">
    <use href="#cubeCat"/>
    <rect class="pink line" x="28" y="42" width="8" height="6" rx="2"/>
    <path class="line" d="M52 30h5M53 35h8M52 40h5" fill="none"/>
  </g>

  <g id="scratch" transform="translate(384 0)">
    <use href="#cubeCat"/>
    <rect class="patch line" x="49" y="44" width="9" height="12" rx="2"/>
    <path class="line" d="M56 33h6M55 39h7M56 45h6" fill="none"/>
  </g>

  <g id="groom" transform="translate(448 0)">
    <use href="#cubeCat"/>
    <rect class="fur line" x="15" y="42" width="12" height="11" rx="3"/>
    <path class="line" d="M18 42c4-6 9-6 13-1" fill="none"/>
    <circle class="pink" cx="20" cy="47" r="2"/>
  </g>

  <g id="pounce" transform="translate(512 0)">
    <path class="shadow" d="M8 52h48v5H8Z"/>
    <path class="fur line" d="M15 24V12l9 7h17l9-7v12h4v22H11V24Z"/>
    <path class="patch" d="M20 27h24v18H20Z"/>
    <circle class="ink" cx="24" cy="34" r="2.7"/>
    <circle class="ink" cx="42" cy="34" r="2.7"/>
    <path class="line" d="M27 41c3 2 7 2 10 0M10 50c11-5 33-5 44 0" fill="none"/>
  </g>

  <g id="perch" transform="translate(576 0)">
    <path class="shadow" d="M6 47h52v4H6Z"/>
    <path class="fur line" d="M12 20V9l10 8h20l10-8v11h4v26H8V20Z"/>
    <path class="pink line" d="M15 14v8l7-5Z"/>
    <path class="pink line" d="M49 14v8l-7-5Z"/>
    <path class="patch" d="M18 24h28v22H18Z"/>
    <circle class="ink" cx="23" cy="34" r="2.7"/>
    <circle class="ink" cx="42" cy="34" r="2.7"/>
    <path class="line" d="M29 41c3 2 7 2 10 0" fill="none"/>
    <path class="line" d="M12 38H3M12 43H4M52 38h9M52 43h8" fill="none"/>
    <rect class="fur line" x="15" y="45" width="9" height="13" rx="3"/>
    <rect class="patch line" x="40" y="45" width="9" height="13" rx="3"/>
    <path class="line" d="M24 50h16" fill="none"/>
  </g>

  <g id="walk-1" transform="translate(640 0)">
    <use href="#cubeCat"/>
    <rect class="fur line" x="11" y="46" width="10" height="9" rx="2"/>
    <rect class="patch line" x="43" y="47" width="11" height="8" rx="2"/>
    <path class="line" d="M50 51h9l2-3" fill="none"/>
  </g>

  <g id="walk-2" transform="translate(704 0)">
    <use href="#cubeCat"/>
    <rect class="fur line" x="16" y="47" width="11" height="8" rx="2"/>
    <rect class="patch line" x="37" y="46" width="10" height="9" rx="2"/>
    <path class="line" d="M49 51c4 2 8 1 11-2" fill="none"/>
  </g>

  <g id="sleep-1" transform="translate(768 0)">
    <g transform="translate(0 1)">
      <use href="#cubeCatSleep"/>
    </g>
    <text x="43" y="25" font-family="Arial, sans-serif" font-size="9" font-weight="700" fill="#7a5a48">Z</text>
  </g>

  <g id="wake-1" transform="translate(832 0)">
    <path class="shadow" d="M8 50h48v5H8Z"/>
    <path class="fur line" d="M13 23V11l10 7h18l10-7v12h4v23H9V23Z"/>
    <path class="patch" d="M18 27h28v18H18Z"/>
    <path class="line" d="M18 35h8M38 35h8M24 42h16" fill="none"/>
    <path class="line" d="M6 20l8 4M58 20l-8 4M14 47l-8 6M50 47l8 6" fill="none"/>
  </g>

  <g id="look-1" transform="translate(896 0)">
    <use href="#cubeCat"/>
    <circle class="ink" cx="19" cy="34" r="2.7"/>
    <circle class="ink" cx="38" cy="34" r="2.7"/>
    <path class="line" d="M7 27H1l-2-4" fill="none"/>
  </g>

  <g id="scratch-1" transform="translate(960 0)">
    <use href="#cubeCat"/>
    <rect class="patch line" x="48" y="38" width="12" height="9" rx="2"/>
    <path class="line" d="M57 28h5M56 34h7M57 40h5M51 48l8 7" fill="none"/>
  </g>
</svg>
